<svg xmlns="http://www.w3.org/2000/svg" version="1.1" xmlns:xlink="http://www.w3.org/1999/xlink" xmlns:svgjs="http://svgjs.dev/svgjs" width="1500" height="265" viewBox="0 0 1500 265"><g transform="matrix(1,0,0,1,-0.9090909090909918,-0.5620327089915236)"><svg viewBox="0 0 396 70" data-background-color="#0c0c0b" preserveAspectRatio="xMidYMid meet" height="265" width="1500" xmlns="http://www.w3.org/2000/svg" xmlns:xlink="http://www.w3.org/1999/xlink"><g id="tight-bounds" transform="matrix(1,0,0,1,0.2400000000000091,0.14846147029965095)"><svg viewBox="0 0 395.52 69.7030770594007" height="69.7030770594007" width="395.52"><g><svg viewBox="0 0 519.2359383394876 91.50572062623264" height="69.7030770594007" width="395.52"><g transform="matrix(1,0,0,1,123.71593833948765,12.646593805796265)"><svg viewBox="0 0 395.52 66.21253301464012" height="66.21253301464012" width="395.52"><g id="textblocktransform"><svg viewBox="0 0 395.52 66.21253301464012" height="66.21253301464012" width="395.52" id="textblock"><g><svg viewBox="0 0 395.52 40.23111497500544" height="40.23111497500544" width="395.52"><g transform="matrix(1,0,0,1,0,0)"><svg width="395.52" viewBox="4.5 -35.6 459.07 46.8" height="40.23111497500544" data-palette-color="#06ff06"><g class="wordmark-text-0" data-fill-palette-color="primary" id="text-0"><path d="M8.25 0L4.5 0 4.5-32.8 9.5-32.8 15.8-15.3Q16.4-13.6 16.98-11.88 17.55-10.15 18.15-8.45L18.15-8.45 18.35-8.45Q18.95-10.15 19.48-11.88 20-13.6 20.6-15.3L20.6-15.3 26.8-32.8 31.85-32.8 31.85 0 27.95 0 27.95-18.05Q27.95-20.25 28.15-22.9 28.35-25.55 28.5-27.75L28.5-27.75 28.3-27.75 25.7-20.3 19.5-3.3 16.75-3.3 10.55-20.3 7.95-27.75 7.75-27.75Q7.9-25.55 8.08-22.9 8.25-20.25 8.25-18.05L8.25-18.05 8.25 0ZM50.3 0.6L50.3 0.6Q47.85 0.6 45.72-0.28 43.6-1.15 42.02-2.78 40.45-4.4 39.55-6.75 38.65-9.1 38.65-12.1L38.65-12.1Q38.65-15.1 39.57-17.48 40.5-19.85 42.02-21.5 43.55-23.15 45.5-24.03 47.45-24.9 49.55-24.9L49.55-24.9Q51.85-24.9 53.67-24.1 55.5-23.3 56.72-21.8 57.95-20.3 58.6-18.2 59.25-16.1 59.25-13.5L59.25-13.5Q59.25-12.85 59.22-12.23 59.2-11.6 59.1-11.15L59.1-11.15 42.7-11.15Q42.95-7.25 45.12-4.98 47.3-2.7 50.8-2.7L50.8-2.7Q52.55-2.7 54.02-3.23 55.5-3.75 56.85-4.6L56.85-4.6 58.3-1.9Q56.7-0.9 54.75-0.15 52.8 0.6 50.3 0.6ZM42.65-14.1L42.65-14.1 55.65-14.1Q55.65-17.8 54.07-19.73 52.5-21.65 49.65-21.65L49.65-21.65Q48.35-21.65 47.17-21.15 46-20.65 45.05-19.68 44.1-18.7 43.47-17.3 42.85-15.9 42.65-14.1ZM73.55 0.6L73.55 0.6Q68.95 0.6 66.22-2.7 63.5-6 63.5-12.1L63.5-12.1Q63.5-15.05 64.37-17.43 65.25-19.8 66.7-21.45 68.15-23.1 70.05-24 71.95-24.9 74.05-24.9L74.05-24.9Q76.15-24.9 77.7-24.15 79.25-23.4 80.85-22.1L80.85-22.1 80.65-26.25 80.65-35.6 84.8-35.6 84.8 0 81.4 0 81.05-2.85 80.9-2.85Q79.45-1.45 77.57-0.43 75.7 0.6 73.55 0.6ZM74.45-2.85L74.45-2.85Q76.15-2.85 77.65-3.68 79.15-4.5 80.65-6.2L80.65-6.2 80.65-18.9Q79.1-20.3 77.67-20.88 76.25-21.45 74.75-21.45L74.75-21.45Q73.3-21.45 72.02-20.78 70.75-20.1 69.8-18.88 68.85-17.65 68.3-15.95 67.75-14.25 67.75-12.15L67.75-12.15Q67.75-7.75 69.5-5.3 71.25-2.85 74.45-2.85ZM97.09 0L92.99 0 92.99-24.3 97.09-24.3 97.09 0ZM95.09-29.3L95.09-29.3Q93.89-29.3 93.07-30.05 92.24-30.8 92.24-31.95L92.24-31.95Q92.24-33.15 93.07-33.88 93.89-34.6 95.09-34.6L95.09-34.6Q96.29-34.6 97.12-33.88 97.94-33.15 97.94-31.95L97.94-31.95Q97.94-30.8 97.12-30.05 96.29-29.3 95.09-29.3ZM114.89 0.6L114.89 0.6Q112.49 0.6 110.39-0.25 108.29-1.1 106.77-2.73 105.24-4.35 104.37-6.73 103.49-9.1 103.49-12.1L103.49-12.1Q103.49-15.15 104.44-17.53 105.39-19.9 106.99-21.55 108.59-23.2 110.72-24.05 112.84-24.9 115.19-24.9L115.19-24.9Q117.59-24.9 119.29-24.05 120.99-23.2 122.29-22.05L122.29-22.05 120.19-19.35Q119.14-20.3 117.97-20.9 116.79-21.5 115.34-21.5L115.34-21.5Q113.69-21.5 112.29-20.83 110.89-20.15 109.89-18.9 108.89-17.65 108.32-15.93 107.74-14.2 107.74-12.1L107.74-12.1Q107.74-10 108.29-8.3 108.84-6.6 109.82-5.38 110.79-4.15 112.19-3.48 113.59-2.8 115.24-2.8L115.24-2.8Q116.94-2.8 118.37-3.53 119.79-4.25 120.94-5.25L120.94-5.25 122.74-2.5Q121.09-1.05 119.09-0.23 117.09 0.6 114.89 0.6ZM133.69 0.6L133.69 0.6Q130.64 0.6 128.61-1.2 126.59-3 126.59-6.3L126.59-6.3Q126.59-10.3 130.14-12.43 133.69-14.55 141.49-15.4L141.49-15.4Q141.49-16.55 141.26-17.65 141.04-18.75 140.49-19.6 139.94-20.45 138.96-20.98 137.99-21.5 136.49-21.5L136.49-21.5Q134.39-21.5 132.54-20.7 130.69-19.9 129.24-18.9L129.24-18.9 127.64-21.75Q129.34-22.85 131.79-23.88 134.24-24.9 137.19-24.9L137.19-24.9Q141.64-24.9 143.64-22.18 145.64-19.45 145.64-14.9L145.64-14.9 145.64 0 142.24 0 141.89-2.9 141.74-2.9Q139.99-1.45 137.99-0.43 135.99 0.6 133.69 0.6ZM134.89-2.7L134.89-2.7Q136.64-2.7 138.19-3.53 139.74-4.35 141.49-5.95L141.49-5.95 141.49-12.7Q138.44-12.3 136.36-11.75 134.29-11.2 133.01-10.45 131.74-9.7 131.16-8.72 130.59-7.75 130.59-6.6L130.59-6.6Q130.59-4.5 131.84-3.6 133.09-2.7 134.89-2.7ZM157.63 0.6L157.63 0.6Q155.28 0.6 154.28-0.8 153.28-2.2 153.28-4.9L153.28-4.9 153.28-35.6 157.38-35.6 157.38-4.6Q157.38-3.6 157.74-3.2 158.09-2.8 158.53-2.8L158.53-2.8Q158.74-2.8 158.91-2.8 159.09-2.8 159.44-2.9L159.44-2.9 159.99 0.2Q159.59 0.4 159.03 0.5 158.49 0.6 157.63 0.6Z" fill="#06ff06" data-fill-palette-color="primary"></path><path d="M183.69 0.6L183.69 0.6Q181.29 0.6 179.19-0.25 177.09-1.1 175.56-2.73 174.04-4.35 173.16-6.73 172.29-9.1 172.29-12.1L172.29-12.1Q172.29-15.15 173.24-17.53 174.19-19.9 175.79-21.55 177.39-23.2 179.51-24.05 181.64-24.9 183.99-24.9L183.99-24.9Q186.39-24.9 188.09-24.05 189.79-23.2 191.09-22.05L191.09-22.05 188.99-19.35Q187.94-20.3 186.76-20.9 185.59-21.5 184.14-21.5L184.14-21.5Q182.49-21.5 181.09-20.83 179.69-20.15 178.69-18.9 177.69-17.65 177.11-15.93 176.54-14.2 176.54-12.1L176.54-12.1Q176.54-10 177.09-8.3 177.64-6.6 178.61-5.38 179.59-4.15 180.99-3.48 182.39-2.8 184.04-2.8L184.04-2.8Q185.74-2.8 187.16-3.53 188.59-4.25 189.74-5.25L189.74-5.25 191.54-2.5Q189.89-1.05 187.89-0.23 185.89 0.6 183.69 0.6ZM206.33 0.6L206.33 0.6Q204.08 0.6 202.06-0.25 200.04-1.1 198.49-2.73 196.94-4.35 196.01-6.73 195.08-9.1 195.08-12.1L195.08-12.1Q195.08-15.15 196.01-17.53 196.94-19.9 198.49-21.55 200.04-23.2 202.06-24.05 204.08-24.9 206.33-24.9L206.33-24.9Q208.58-24.9 210.61-24.05 212.64-23.2 214.19-21.55 215.74-19.9 216.66-17.53 217.58-15.15 217.58-12.1L217.58-12.1Q217.58-9.1 216.66-6.73 215.74-4.35 214.19-2.73 212.64-1.1 210.61-0.25 208.58 0.6 206.33 0.6ZM206.33-2.8L206.33-2.8Q207.89-2.8 209.19-3.48 210.49-4.15 211.41-5.38 212.33-6.6 212.83-8.3 213.33-10 213.33-12.1L213.33-12.1Q213.33-14.2 212.83-15.93 212.33-17.65 211.41-18.9 210.49-20.15 209.19-20.83 207.89-21.5 206.33-21.5L206.33-21.5Q204.79-21.5 203.49-20.83 202.19-20.15 201.26-18.9 200.33-17.65 199.83-15.93 199.33-14.2 199.33-12.1L199.33-12.1Q199.33-10 199.83-8.3 200.33-6.6 201.26-5.38 202.19-4.15 203.49-3.48 204.79-2.8 206.33-2.8ZM232.28 0.6L232.28 0.6Q227.68 0.6 224.96-2.7 222.23-6 222.23-12.1L222.23-12.1Q222.23-15.05 223.11-17.43 223.98-19.8 225.43-21.45 226.88-23.1 228.78-24 230.68-24.9 232.78-24.9L232.78-24.9Q234.88-24.9 236.43-24.15 237.98-23.4 239.58-22.1L239.58-22.1 239.38-26.25 239.38-35.6 243.53-35.6 243.53 0 240.13 0 239.78-2.85 239.63-2.85Q238.18-1.45 236.31-0.43 234.43 0.6 232.28 0.6ZM233.18-2.85L233.18-2.85Q234.88-2.85 236.38-3.68 237.88-4.5 239.38-6.2L239.38-6.2 239.38-18.9Q237.83-20.3 236.41-20.88 234.98-21.45 233.48-21.45L233.48-21.45Q232.03-21.45 230.76-20.78 229.48-20.1 228.53-18.88 227.58-17.65 227.03-15.95 226.48-14.25 226.48-12.15L226.48-12.15Q226.48-7.75 228.23-5.3 229.98-2.85 233.18-2.85ZM255.83 0L251.73 0 251.73-24.3 255.83-24.3 255.83 0ZM253.83-29.3L253.83-29.3Q252.63-29.3 251.81-30.05 250.98-30.8 250.98-31.95L250.98-31.95Q250.98-33.15 251.81-33.88 252.63-34.6 253.83-34.6L253.83-34.6Q255.03-34.6 255.86-33.88 256.68-33.15 256.68-31.95L256.68-31.95Q256.68-30.8 255.86-30.05 255.03-29.3 253.83-29.3ZM268.13 0L264.03 0 264.03-24.3 267.43-24.3 267.78-20.8 267.93-20.8Q269.68-22.55 271.6-23.73 273.53-24.9 276.08-24.9L276.08-24.9Q279.93-24.9 281.7-22.5 283.48-20.1 283.48-15.4L283.48-15.4 283.48 0 279.38 0 279.38-14.85Q279.38-18.3 278.28-19.83 277.18-21.35 274.78-21.35L274.78-21.35Q272.88-21.35 271.43-20.4 269.98-19.45 268.13-17.6L268.13-17.6 268.13 0ZM299.58 11.2L299.58 11.2Q297.33 11.2 295.48 10.78 293.63 10.35 292.3 9.5 290.98 8.65 290.25 7.45 289.53 6.25 289.53 4.65L289.53 4.65Q289.53 3.1 290.48 1.7 291.43 0.3 293.08-0.85L293.08-0.85 293.08-1.05Q292.18-1.6 291.55-2.58 290.93-3.55 290.93-5L290.93-5Q290.93-6.55 291.78-7.7 292.63-8.85 293.58-9.5L293.58-9.5 293.58-9.7Q292.38-10.7 291.4-12.38 290.43-14.05 290.43-16.25L290.43-16.25Q290.43-18.25 291.15-19.85 291.88-21.45 293.13-22.58 294.38-23.7 296.05-24.3 297.73-24.9 299.58-24.9L299.58-24.9Q300.58-24.9 301.45-24.73 302.33-24.55 303.03-24.3L303.03-24.3 311.48-24.3 311.48-21.15 306.48-21.15Q307.33-20.3 307.9-19 308.48-17.7 308.48-16.15L308.48-16.15Q308.48-14.2 307.78-12.63 307.08-11.05 305.88-9.98 304.68-8.9 303.05-8.3 301.43-7.7 299.58-7.7L299.58-7.7Q298.68-7.7 297.73-7.93 296.78-8.15 295.93-8.55L295.93-8.55Q295.28-8 294.83-7.33 294.38-6.65 294.38-5.65L294.38-5.65Q294.38-4.5 295.28-3.75 296.18-3 298.68-3L298.68-3 303.38-3Q307.63-3 309.75-1.63 311.88-0.25 311.88 2.8L311.88 2.8Q311.88 4.5 311.03 6.03 310.18 7.55 308.58 8.7 306.98 9.85 304.7 10.53 302.43 11.2 299.58 11.2ZM299.58-10.45L299.58-10.45Q300.63-10.45 301.55-10.85 302.48-11.25 303.2-12 303.93-12.75 304.33-13.83 304.73-14.9 304.73-16.25L304.73-16.25Q304.73-18.95 303.23-20.43 301.73-21.9 299.58-21.9L299.58-21.9Q297.43-21.9 295.93-20.43 294.43-18.95 294.43-16.25L294.43-16.25Q294.43-14.9 294.83-13.83 295.23-12.75 295.95-12 296.68-11.25 297.6-10.85 298.53-10.45 299.58-10.45ZM300.18 8.35L300.18 8.35Q301.93 8.35 303.35 7.93 304.78 7.5 305.78 6.83 306.78 6.15 307.33 5.25 307.88 4.35 307.88 3.4L307.88 3.4Q307.88 1.7 306.63 1.05 305.38 0.4 302.98 0.4L302.98 0.4 298.78 0.4Q298.08 0.4 297.25 0.33 296.43 0.25 295.63 0L295.63 0Q294.33 0.95 293.73 2 293.13 3.05 293.13 4.1L293.13 4.1Q293.13 6.05 295 7.2 296.88 8.35 300.18 8.35Z" fill="#0eebca" data-fill-palette-color="secondary"></path><path d="M335.48 0.6L335.48 0.6Q332.03 0.6 329.08-0.7 326.13-2 323.98-4.25L323.98-4.25 326.48-7.15Q328.23-5.3 330.6-4.17 332.98-3.05 335.53-3.05L335.53-3.05Q338.78-3.05 340.58-4.53 342.38-6 342.38-8.4L342.38-8.4Q342.38-9.65 341.95-10.53 341.53-11.4 340.8-12.03 340.08-12.65 339.08-13.15 338.08-13.65 336.93-14.2L336.93-14.2 332.23-16.25Q331.08-16.75 329.88-17.45 328.68-18.15 327.73-19.15 326.78-20.15 326.18-21.53 325.58-22.9 325.58-24.7L325.58-24.7Q325.58-26.55 326.35-28.15 327.13-29.75 328.5-30.93 329.88-32.1 331.75-32.75 333.63-33.4 335.88-33.4L335.88-33.4Q338.83-33.4 341.33-32.27 343.83-31.15 345.58-29.35L345.58-29.35 343.33-26.65Q341.83-28.1 340-28.93 338.18-29.75 335.88-29.75L335.88-29.75Q333.13-29.75 331.45-28.48 329.78-27.2 329.78-24.95L329.78-24.95Q329.78-23.75 330.25-22.93 330.73-22.1 331.53-21.48 332.33-20.85 333.28-20.38 334.23-19.9 335.23-19.5L335.23-19.5 339.88-17.5Q341.28-16.9 342.53-16.13 343.78-15.35 344.68-14.33 345.58-13.3 346.1-11.93 346.63-10.55 346.63-8.75L346.63-8.75Q346.63-6.8 345.85-5.1 345.08-3.4 343.63-2.13 342.18-0.85 340.13-0.13 338.08 0.6 335.48 0.6ZM362.28 0.6L362.28 0.6Q359.88 0.6 357.78-0.25 355.68-1.1 354.15-2.73 352.63-4.35 351.75-6.73 350.88-9.1 350.88-12.1L350.88-12.1Q350.88-15.15 351.83-17.53 352.78-19.9 354.38-21.55 355.98-23.2 358.1-24.05 360.23-24.9 362.58-24.9L362.58-24.9Q364.98-24.9 366.68-24.05 368.38-23.2 369.68-22.05L369.68-22.05 367.58-19.35Q366.53-20.3 365.35-20.9 364.18-21.5 362.73-21.5L362.73-21.5Q361.08-21.5 359.68-20.83 358.28-20.15 357.28-18.9 356.28-17.65 355.7-15.93 355.13-14.2 355.13-12.1L355.13-12.1Q355.13-10 355.68-8.3 356.23-6.6 357.2-5.38 358.18-4.15 359.58-3.48 360.98-2.8 362.63-2.8L362.63-2.8Q364.33-2.8 365.75-3.53 367.18-4.25 368.33-5.25L368.33-5.25 370.13-2.5Q368.48-1.05 366.48-0.23 364.48 0.6 362.28 0.6ZM379.57 0L375.47 0 375.47-35.6 379.57-35.6 379.57-25.9 379.42-20.9Q381.17-22.55 383.07-23.73 384.97-24.9 387.52-24.9L387.52-24.9Q391.37-24.9 393.15-22.5 394.92-20.1 394.92-15.4L394.92-15.4 394.92 0 390.82 0 390.82-14.85Q390.82-18.3 389.72-19.83 388.62-21.35 386.22-21.35L386.22-21.35Q384.32-21.35 382.87-20.4 381.42-19.45 379.57-17.6L379.57-17.6 379.57 0ZM412.12 0.6L412.12 0.6Q409.87 0.6 407.85-0.25 405.82-1.1 404.27-2.73 402.72-4.35 401.8-6.73 400.87-9.1 400.87-12.1L400.87-12.1Q400.87-15.15 401.8-17.53 402.72-19.9 404.27-21.55 405.82-23.2 407.85-24.05 409.87-24.9 412.12-24.9L412.12-24.9Q414.37-24.9 416.4-24.05 418.42-23.2 419.97-21.55 421.52-19.9 422.45-17.53 423.37-15.15 423.37-12.1L423.37-12.1Q423.37-9.1 422.45-6.73 421.52-4.35 419.97-2.73 418.42-1.1 416.4-0.25 414.37 0.6 412.12 0.6ZM412.12-2.8L412.12-2.8Q413.67-2.8 414.97-3.48 416.27-4.15 417.2-5.38 418.12-6.6 418.62-8.3 419.12-10 419.12-12.1L419.12-12.1Q419.12-14.2 418.62-15.93 418.12-17.65 417.2-18.9 416.27-20.15 414.97-20.83 413.67-21.5 412.12-21.5L412.12-21.5Q410.57-21.5 409.27-20.83 407.97-20.15 407.05-18.9 406.12-17.65 405.62-15.93 405.12-14.2 405.12-12.1L405.12-12.1Q405.12-10 405.62-8.3 406.12-6.6 407.05-5.38 407.97-4.15 409.27-3.48 410.57-2.8 412.12-2.8ZM439.22 0.6L439.22 0.6Q436.97 0.6 434.94-0.25 432.92-1.1 431.37-2.73 429.82-4.35 428.89-6.73 427.97-9.1 427.97-12.1L427.97-12.1Q427.97-15.15 428.89-17.53 429.82-19.9 431.37-21.55 432.92-23.2 434.94-24.05 436.97-24.9 439.22-24.9L439.22-24.9Q441.47-24.9 443.49-24.05 445.52-23.2 447.07-21.55 448.62-19.9 449.54-17.53 450.47-15.15 450.47-12.1L450.47-12.1Q450.47-9.1 449.54-6.73 448.62-4.35 447.07-2.73 445.52-1.1 443.49-0.25 441.47 0.6 439.22 0.6ZM439.22-2.8L439.22-2.8Q440.77-2.8 442.07-3.48 443.37-4.15 444.29-5.38 445.22-6.6 445.72-8.3 446.22-10 446.22-12.1L446.22-12.1Q446.22-14.2 445.72-15.93 445.22-17.65 444.29-18.9 443.37-20.15 442.07-20.83 440.77-21.5 439.22-21.5L439.22-21.5Q437.67-21.5 436.37-20.83 435.07-20.15 434.14-18.9 433.22-17.65 432.72-15.93 432.22-14.2 432.22-12.1L432.22-12.1Q432.22-10 432.72-8.3 433.22-6.6 434.14-5.38 435.07-4.15 436.37-3.48 437.67-2.8 439.22-2.8ZM461.22 0.6L461.22 0.6Q458.87 0.6 457.87-0.8 456.87-2.2 456.87-4.9L456.87-4.9 456.87-35.6 460.97-35.6 460.97-4.6Q460.97-3.6 461.32-3.2 461.67-2.8 462.12-2.8L462.12-2.8Q462.32-2.8 462.49-2.8 462.67-2.8 463.02-2.9L463.02-2.9 463.57 0.2Q463.17 0.4 462.62 0.5 462.07 0.6 461.22 0.6Z" fill="#7fc37e" data-fill-palette-color="accent"></path></g></svg></g></svg></g><g transform="matrix(1,0,0,1,0,49.728715673844825)"><svg viewBox="0 0 232.209792 16.483817340795287" height="16.483817340795287" width="232.209792"><g transform="matrix(1,0,0,1,0,0)"><svg width="232.209792" viewBox="1.55 -39 678.94 48.2" height="16.483817340795287" data-palette-color="#0eebca"><path d="M1.55-25.5L1.55-36 31.35-36 31.35-25.5 28.75-25.5 27.15-33 18.95-33 18.95-3.35 24.25-2.15 24.25 0 8.65 0 8.65-2.15 13.95-3.35 13.95-33 5.7-33 4.15-25.5 1.55-25.5ZM57.4-13.75L57.4-13.75Q57.4-10.5 56.42-7.58 55.45-4.65 53.7-2.75L53.7-2.75Q52.2-1.1 50-0.3 47.8 0.5 45 0.5L45 0.5Q42.25 0.5 40.1-0.28 37.95-1.05 36.45-2.65L36.45-2.65Q34.75-4.5 33.82-7.23 32.9-9.95 32.9-13.15L32.9-13.15Q32.9-16.4 33.85-19.38 34.8-22.35 36.6-24.25L36.6-24.25Q38.2-25.95 40.32-26.73 42.45-27.5 45.2-27.5L45.2-27.5Q47.95-27.5 50.15-26.73 52.35-25.95 53.85-24.35L53.85-24.35Q55.6-22.5 56.5-19.73 57.4-16.95 57.4-13.75ZM38.25-13.7L38.25-13.7Q38.25-10.65 38.72-8.43 39.2-6.2 40.05-4.75L40.05-4.75Q40.9-3.5 42.07-2.8 43.25-2.1 45.15-2.1L45.15-2.1Q48.6-2.1 50.3-4.45L50.3-4.45Q51.2-5.75 51.62-8.05 52.05-10.35 52.05-13.35L52.05-13.35Q52.05-16.35 51.57-18.6 51.1-20.85 50.25-22.25L50.25-22.25Q49.45-23.55 48.22-24.23 47-24.9 45.1-24.9L45.1-24.9Q41.6-24.9 40.05-22.6L40.05-22.6Q38.25-19.8 38.25-13.7ZM85.05 0.5L85.05 0.5Q85.05 4.3 81.82 6.75 78.59 9.2 72.84 9.2L72.84 9.2Q69.05 9.2 66.44 8.45 63.84 7.7 62.52 6.3 61.2 4.9 61.2 2.95L61.2 2.95Q61.2 0.6 62.59-0.68 63.99-1.95 66.44-2.3L66.44-2.3 66.44-2.5Q63.15-3.45 63.15-6.4L63.15-6.4Q63.15-7.45 63.65-8.38 64.14-9.3 65.17-10.1 66.19-10.9 67.8-11.45L67.8-11.45Q65.34-12.35 63.99-14.25 62.65-16.15 62.65-18.9L62.65-18.9Q62.65-22.9 65.42-25.2 68.19-27.5 72.84-27.5L72.84-27.5Q75.19-27.5 77.05-26.93 78.9-26.35 80.19-25.2L80.19-25.2 81.9-25.8 86.5-28 87.34-28 87.34-23.6 86.5-23.6 83-24 81.3-24Q82.75-22 82.75-19.2L82.75-19.2Q82.75-15.25 80.02-12.98 77.3-10.7 72.5-10.7L72.5-10.7Q72-10.7 71.5-10.73 71-10.75 70.5-10.8L70.5-10.8Q68.5-10.5 67.52-9.75 66.55-9 66.55-7.85L66.55-7.85Q66.55-6.7 67.44-6.28 68.34-5.85 70.94-5.85L70.94-5.85 76.75-5.85Q80.84-5.85 82.94-4.33 85.05-2.8 85.05 0.5ZM74.55-2L74.55-2 71.3-2Q67.94-2 66.44-0.85 64.94 0.3 64.94 2.15L64.94 2.15Q64.94 6.7 72.75 6.7L72.75 6.7Q77 6.7 79.22 5.4 81.44 4.1 81.44 1.6L81.44 1.6Q81.44-0.4 79.92-1.2 78.39-2 74.55-2ZM67.05-19.1L67.05-19.1Q67.05-16.1 68.42-14.55 69.8-13 72.69-13L72.69-13Q75.64-13 77-14.55 78.34-16.1 78.34-19.1L78.34-19.1Q78.34-22.1 77-23.65 75.64-25.2 72.69-25.2L72.69-25.2Q69.8-25.2 68.42-23.65 67.05-22.1 67.05-19.1ZM112.54-13.2L112.54-13.2 95.09-13.2Q95.09-9.55 96.09-7.15L96.09-7.15Q97.09-4.85 98.94-3.85 100.79-2.85 102.94-2.85L102.94-2.85Q105.29-2.85 107.24-3.83 109.19-4.8 110.74-6.5L110.74-6.5 112.34-5.3Q110.59-2.9 108.09-1.2 105.59 0.5 101.64 0.5L101.64 0.5Q98.19 0.5 95.54-0.98 92.89-2.45 91.49-5.3L91.49-5.3Q90.74-6.85 90.39-8.75 90.04-10.65 90.04-12.8L90.04-12.8Q90.04-19.8 93.27-23.65 96.49-27.5 102.04-27.5L102.04-27.5Q107.14-27.5 109.92-24.33 112.69-21.15 112.69-15.55L112.69-15.55Q112.69-15.05 112.67-14.63 112.64-14.2 112.54-13.2ZM101.74-24.8L101.74-24.8Q95.74-24.8 95.14-15.65L95.14-15.65 107.64-15.65 107.64-17.3Q107.64-20.9 106.12-22.85 104.59-24.8 101.74-24.8ZM120.19-24.5L115.34-24.5 115.34-26.3 120.19-27 120.84-33.3 125.04-33.9 125.04-27 131.44-27 131.44-24.5 125.04-24.5 125.04-6.65Q125.04-4.95 125.09-4.33 125.14-3.7 125.29-3.3L125.29-3.3Q125.44-2.95 125.84-2.83 126.24-2.7 127.14-2.7L127.14-2.7 130.64-2.7 130.64-1.25Q128.24-0.35 126.42 0.08 124.59 0.5 123.49 0.5L123.49 0.5Q121.24 0.5 120.59-1.35L120.59-1.35Q120.39-1.95 120.29-2.9 120.19-3.85 120.19-5.7L120.19-5.7 120.19-24.5ZM150.99-2.05L154.34-3 154.34-14.15Q154.34-17.4 154.16-19 153.99-20.6 153.54-21.5L153.54-21.5Q152.34-23.95 149.14-23.95L149.14-23.95Q147.74-23.95 146.44-23.45 145.14-22.95 144.14-22.1L144.14-22.1Q143.04-21.15 142.51-19.83 141.99-18.5 141.89-16.55L141.89-16.55 141.89-3 145.24-2.05 145.24 0 133.19 0 133.19-2.05 137.04-3 137.04-36 133.19-36.95 133.19-39 141.89-39 141.89-22.3Q143.39-24.7 145.86-26.1 148.34-27.5 151.19-27.5L151.19-27.5Q153.19-27.5 154.79-26.8 156.39-26.1 157.34-24.8L157.34-24.8Q158.34-23.4 158.76-20.88 159.19-18.35 159.19-14.05L159.19-14.05 159.19-3 163.04-2.05 163.04 0 150.99 0 150.99-2.05ZM188.98-13.2L188.98-13.2 171.53-13.2Q171.53-9.55 172.53-7.15L172.53-7.15Q173.53-4.85 175.38-3.85 177.23-2.85 179.38-2.85L179.38-2.85Q181.73-2.85 183.69-3.83 185.63-4.8 187.19-6.5L187.19-6.5 188.78-5.3Q187.03-2.9 184.53-1.2 182.03 0.5 178.08 0.5L178.08 0.5Q174.63 0.5 171.98-0.98 169.33-2.45 167.94-5.3L167.94-5.3Q167.19-6.85 166.83-8.75 166.48-10.65 166.48-12.8L166.48-12.8Q166.48-19.8 169.71-23.65 172.94-27.5 178.48-27.5L178.48-27.5Q183.58-27.5 186.36-24.33 189.13-21.15 189.13-15.55L189.13-15.55Q189.13-15.05 189.11-14.63 189.08-14.2 188.98-13.2ZM178.19-24.8L178.19-24.8Q172.19-24.8 171.58-15.65L171.58-15.65 184.08-15.65 184.08-17.3Q184.08-20.9 182.56-22.85 181.03-24.8 178.19-24.8ZM208.18-24.1L208.18-24.1Q207.98-24.25 207.71-24.33 207.43-24.4 207.18-24.4L207.18-24.4Q206.58-24.4 205.88-23.85 205.18-23.3 204.53-22.38 203.88-21.45 203.33-20.25L203.33-20.25Q202.63-18.55 202.23-16.53 201.83-14.5 201.83-12.35L201.83-12.35 201.83-3 207.23-2.05 207.23 0 193.13 0 193.13-2.05 196.98-3 196.98-24 193.13-24.95 193.13-27 200.33-27 201.43-20.4 201.63-20.4Q202.78-23.8 204.73-25.65 206.68-27.5 209.03-27.5L209.03-27.5Q210.98-27.5 212.28-26.28 213.58-25.05 213.58-23L213.58-23Q213.58-21.5 212.81-20.63 212.03-19.75 210.73-19.75L210.73-19.75Q209.43-19.75 208.68-20.58 207.93-21.4 207.93-22.75L207.93-22.75Q207.93-23.05 207.98-23.33 208.03-23.6 208.18-24.1ZM236.38-24.95L232.93-24 238.08-6 238.68-3.05 238.93-3.05 239.53-6 245.38-27.5 248.98-27.5 255.03-6 255.63-3.05 255.83-3.05 256.43-6 261.43-24 258.18-24.95 258.18-27 267.68-27 267.68-24.95 264.98-24 257.53 0.5 252.38 0.5 246.43-19 240.63 0.5 235.48 0.5 227.83-24 225.18-24.95 225.18-27 236.38-27 236.38-24.95ZM292.48-13.2L292.48-13.2 275.02-13.2Q275.02-9.55 276.02-7.15L276.02-7.15Q277.02-4.85 278.88-3.85 280.73-2.85 282.88-2.85L282.88-2.85Q285.23-2.85 287.18-3.83 289.13-4.8 290.68-6.5L290.68-6.5 292.27-5.3Q290.52-2.9 288.02-1.2 285.52 0.5 281.57 0.5L281.57 0.5Q278.13 0.5 275.48-0.98 272.82-2.45 271.43-5.3L271.43-5.3Q270.68-6.85 270.32-8.75 269.98-10.65 269.98-12.8L269.98-12.8Q269.98-19.8 273.2-23.65 276.43-27.5 281.98-27.5L281.98-27.5Q287.07-27.5 289.85-24.33 292.63-21.15 292.63-15.55L292.63-15.55Q292.63-15.05 292.6-14.63 292.57-14.2 292.48-13.2ZM281.68-24.8L281.68-24.8Q275.68-24.8 275.07-15.65L275.07-15.65 287.57-15.65 287.57-17.3Q287.57-20.9 286.05-22.85 284.52-24.8 281.68-24.8ZM308.92-2.05L312.77-3 312.77-36 308.92-36.95 308.92-39 317.62-39 317.62-3 321.47-2.05 321.47 0 308.92 0 308.92-2.05ZM347.77-13.2L347.77-13.2 330.32-13.2Q330.32-9.55 331.32-7.15L331.32-7.15Q332.32-4.85 334.17-3.85 336.02-2.85 338.17-2.85L338.17-2.85Q340.52-2.85 342.47-3.83 344.42-4.8 345.97-6.5L345.97-6.5 347.57-5.3Q345.82-2.9 343.32-1.2 340.82 0.5 336.87 0.5L336.87 0.5Q333.42 0.5 330.77-0.98 328.12-2.45 326.72-5.3L326.72-5.3Q325.97-6.85 325.62-8.75 325.27-10.65 325.27-12.8L325.27-12.8Q325.27-19.8 328.49-23.65 331.72-27.5 337.27-27.5L337.27-27.5Q342.37-27.5 345.14-24.33 347.92-21.15 347.92-15.55L347.92-15.55Q347.92-15.05 347.89-14.63 347.87-14.2 347.77-13.2ZM336.97-24.8L336.97-24.8Q330.97-24.8 330.37-15.65L330.37-15.65 342.87-15.65 342.87-17.3Q342.87-20.9 341.34-22.85 339.82-24.8 336.97-24.8ZM352.01-5.85L352.01-5.85Q352.01-9.75 355.66-12 359.31-14.25 367.76-15.5L367.76-15.5Q367.56-18.45 367.21-20.1 366.86-21.75 366.31-22.75L366.31-22.75Q365.61-24.05 364.36-24.68 363.11-25.3 361.66-25.3L361.66-25.3Q360.26-25.3 359.14-24.8 358.01-24.3 357.61-23.45L357.61-23.45Q358.31-22.95 358.64-22.15 358.96-21.35 358.96-20.65L358.96-20.65Q358.96-19.4 358.14-18.68 357.31-17.95 356.11-17.95L356.11-17.95Q354.91-17.95 354.14-18.75 353.36-19.55 353.36-21L353.36-21Q353.36-23.1 354.81-24.55 356.26-26 358.49-26.75 360.71-27.5 362.96-27.5L362.96-27.5Q365.01-27.5 366.74-26.88 368.46-26.25 369.66-25.05L369.66-25.05Q372.76-21.95 372.76-14.05L372.76-14.05 372.76-6.8Q372.76-4.35 373.09-3.4 373.41-2.45 374.51-2.45L374.51-2.45 376.76-2.45 376.76-0.95Q373.16 0.5 371.16 0.5L371.16 0.5Q369.61 0.5 369.09-0.63 368.56-1.75 368.56-4.95L368.56-4.95 368.36-4.95Q366.81-2.4 364.26-0.95 361.71 0.5 358.76 0.5L358.76 0.5Q355.61 0.5 353.81-1.2 352.01-2.9 352.01-5.85ZM360.86-2.4L360.86-2.4Q362.26-2.4 363.79-3.13 365.31-3.85 366.36-5.15L366.36-5.15Q367.16-6.15 367.54-7.53 367.91-8.9 367.91-10.75L367.91-10.75Q367.91-11.6 367.86-12.43 367.81-13.25 367.71-14L367.71-14Q363.66-13.2 361.36-12.28 359.06-11.35 358.11-10.08 357.16-8.8 357.16-6.9L357.16-6.9Q357.16-4.75 358.14-3.58 359.11-2.4 360.86-2.4ZM393.81-24.1L393.81-24.1Q393.61-24.25 393.34-24.33 393.06-24.4 392.81-24.4L392.81-24.4Q392.21-24.4 391.51-23.85 390.81-23.3 390.16-22.38 389.51-21.45 388.96-20.25L388.96-20.25Q388.26-18.55 387.86-16.53 387.46-14.5 387.46-12.35L387.46-12.35 387.46-3 392.86-2.05 392.86 0 378.76 0 378.76-2.05 382.61-3 382.61-24 378.76-24.95 378.76-27 385.96-27 387.06-20.4 387.26-20.4Q388.41-23.8 390.36-25.65 392.31-27.5 394.66-27.5L394.66-27.5Q396.61-27.5 397.91-26.28 399.21-25.05 399.21-23L399.21-23Q399.21-21.5 398.44-20.63 397.66-19.75 396.36-19.75L396.36-19.75Q395.06-19.75 394.31-20.58 393.56-21.4 393.56-22.75L393.56-22.75Q393.56-23.05 393.61-23.33 393.66-23.6 393.81-24.1ZM401.66-2.05L405.51-3 405.51-24 401.66-24.95 401.66-27 408.86-27 409.96-22 410.16-22Q411.66-24.55 414.21-26.03 416.76-27.5 419.66-27.5L419.66-27.5Q423.81-27.5 425.81-24.8L425.81-24.8Q426.81-23.4 427.23-20.88 427.66-18.35 427.66-14.05L427.66-14.05 427.66-3 431.51-2.05 431.51 0 419.46 0 419.46-2.05 422.81-3 422.81-14.15Q422.81-17.4 422.63-19 422.46-20.6 422.01-21.5L422.01-21.5Q421.41-22.7 420.28-23.33 419.16-23.95 417.61-23.95L417.61-23.95Q414.71-23.95 412.61-22.1L412.61-22.1Q410.56-20.25 410.36-16.35L410.36-16.35 410.36-3 413.71-2.05 413.71 0 401.66 0 401.66-2.05ZM447.2-5.85L447.2-5.85Q447.2-9.75 450.85-12 454.5-14.25 462.95-15.5L462.95-15.5Q462.75-18.45 462.4-20.1 462.05-21.75 461.5-22.75L461.5-22.75Q460.8-24.05 459.55-24.68 458.3-25.3 456.85-25.3L456.85-25.3Q455.45-25.3 454.33-24.8 453.2-24.3 452.8-23.45L452.8-23.45Q453.5-22.95 453.83-22.15 454.15-21.35 454.15-20.65L454.15-20.65Q454.15-19.4 453.33-18.68 452.5-17.95 451.3-17.95L451.3-17.95Q450.1-17.95 449.33-18.75 448.55-19.55 448.55-21L448.55-21Q448.55-23.1 450-24.55 451.45-26 453.68-26.75 455.9-27.5 458.15-27.5L458.15-27.5Q460.2-27.5 461.93-26.88 463.65-26.25 464.85-25.05L464.85-25.05Q467.95-21.95 467.95-14.05L467.95-14.05 467.95-6.8Q467.95-4.35 468.28-3.4 468.6-2.45 469.7-2.45L469.7-2.45 471.95-2.45 471.95-0.95Q468.35 0.5 466.35 0.5L466.35 0.5Q464.8 0.5 464.28-0.63 463.75-1.75 463.75-4.95L463.75-4.95 463.55-4.95Q462-2.4 459.45-0.95 456.9 0.5 453.95 0.5L453.95 0.5Q450.8 0.5 449-1.2 447.2-2.9 447.2-5.85ZM456.05-2.4L456.05-2.4Q457.45-2.4 458.98-3.13 460.5-3.85 461.55-5.15L461.55-5.15Q462.35-6.15 462.73-7.53 463.1-8.9 463.1-10.75L463.1-10.75Q463.1-11.6 463.05-12.43 463-13.25 462.9-14L462.9-14Q458.85-13.2 456.55-12.28 454.25-11.35 453.3-10.08 452.35-8.8 452.35-6.9L452.35-6.9Q452.35-4.75 453.33-3.58 454.3-2.4 456.05-2.4ZM473.95-2.05L477.8-3 477.8-24 473.95-24.95 473.95-27 481.15-27 482.25-22 482.45-22Q483.95-24.55 486.5-26.03 489.05-27.5 491.95-27.5L491.95-27.5Q496.1-27.5 498.1-24.8L498.1-24.8Q499.1-23.4 499.53-20.88 499.95-18.35 499.95-14.05L499.95-14.05 499.95-3 503.8-2.05 503.8 0 491.75 0 491.75-2.05 495.1-3 495.1-14.15Q495.1-17.4 494.93-19 494.75-20.6 494.3-21.5L494.3-21.5Q493.7-22.7 492.58-23.33 491.45-23.95 489.9-23.95L489.9-23.95Q487-23.95 484.9-22.1L484.9-22.1Q482.85-20.25 482.65-16.35L482.65-16.35 482.65-3 486-2.05 486 0 473.95 0 473.95-2.05ZM507.2-13.25L507.2-13.25Q507.2-16.5 508.05-19.45 508.9-22.4 510.6-24.25L510.6-24.25Q512.05-25.85 514.05-26.68 516.05-27.5 518.65-27.5L518.65-27.5Q520.85-27.5 522.67-26.65 524.5-25.8 525.95-23.6L525.95-23.6 525.95-36 522.1-36.95 522.1-39 530.8-39 530.8-3 534.65-2.05 534.65 0 526.9 0.5 526.5-3.6Q524.95-1.3 523-0.4 521.05 0.5 518.65 0.5L518.65 0.5Q516.1 0.5 514.05-0.25 512-1 510.65-2.65L510.65-2.65Q509.05-4.6 508.13-7.33 507.2-10.05 507.2-13.25ZM525.95-13.3L525.95-13.3Q525.95-16.35 525.5-18.6 525.05-20.85 524.2-22.25L524.2-22.25Q523.4-23.55 522.25-24.23 521.1-24.9 519.2-24.9L519.2-24.9Q517.5-24.9 516.23-24.3 514.95-23.7 514.15-22.55L514.15-22.55Q513.25-21.3 512.85-18.98 512.45-16.65 512.45-13.65L512.45-13.65Q512.45-10.65 512.9-8.43 513.35-6.2 514.2-4.75L514.2-4.75Q515.05-3.5 516.23-2.8 517.4-2.1 519.25-2.1L519.25-2.1Q521-2.1 522.27-2.68 523.55-3.25 524.2-4.4L524.2-4.4Q525.05-5.8 525.5-8.03 525.95-10.25 525.95-13.3ZM567.34-2.75L567.34-2.75Q571.59-2.75 573.72-4.88 575.84-7 575.84-11.15L575.84-11.15 575.84-14.65 571.64-15.7 571.64-17.95 585.04-17.95 585.04-15.7 580.84-14.65 580.84 0 578.24 0 576.99-3.95Q574.84-1.55 572.52-0.53 570.19 0.5 567.04 0.5L567.04 0.5Q560.19 0.5 556.09-3.7L556.09-3.7Q553.79-6.05 552.52-9.65 551.24-13.25 551.24-17.6L551.24-17.6Q551.24-22.05 552.57-25.88 553.89-29.7 556.29-32.2L556.29-32.2Q558.34-34.35 561.07-35.43 563.79-36.5 567.24-36.5L567.24-36.5Q570.24-36.5 572.39-35.58 574.54-34.65 576.39-32.55L576.39-32.55 577.49-36 580.24-36 580.24-24.95 577.19-24.95Q576.49-29.35 573.92-31.58 571.34-33.8 567.04-33.8L567.04-33.8Q564.54-33.8 562.82-32.98 561.09-32.15 559.84-30.4L559.84-30.4Q558.44-28.3 557.62-25.1 556.79-21.9 556.79-18.3L556.79-18.3Q556.79-14.6 557.67-11.45 558.54-8.3 560.14-6.1L560.14-6.1Q561.44-4.35 563.14-3.55 564.84-2.75 567.34-2.75ZM603.09-24.1L603.09-24.1Q602.89-24.25 602.62-24.33 602.34-24.4 602.09-24.4L602.09-24.4Q601.49-24.4 600.79-23.85 600.09-23.3 599.44-22.38 598.79-21.45 598.24-20.25L598.24-20.25Q597.54-18.55 597.14-16.53 596.74-14.5 596.74-12.35L596.74-12.35 596.74-3 602.14-2.05 602.14 0 588.04 0 588.04-2.05 591.89-3 591.89-24 588.04-24.95 588.04-27 595.24-27 596.34-20.4 596.54-20.4Q597.69-23.8 599.64-25.65 601.59-27.5 603.94-27.5L603.94-27.5Q605.89-27.5 607.19-26.28 608.49-25.05 608.49-23L608.49-23Q608.49-21.5 607.72-20.63 606.94-19.75 605.64-19.75L605.64-19.75Q604.34-19.75 603.59-20.58 602.84-21.4 602.84-22.75L602.84-22.75Q602.84-23.05 602.89-23.33 602.94-23.6 603.09-24.1ZM635.69-13.75L635.69-13.75Q635.69-10.5 634.71-7.58 633.74-4.65 631.99-2.75L631.99-2.75Q630.49-1.1 628.29-0.3 626.09 0.5 623.29 0.5L623.29 0.5Q620.54 0.5 618.39-0.28 616.24-1.05 614.74-2.65L614.74-2.65Q613.04-4.5 612.11-7.23 611.19-9.95 611.19-13.15L611.19-13.15Q611.19-16.4 612.14-19.38 613.09-22.35 614.89-24.25L614.89-24.25Q616.49-25.95 618.61-26.73 620.74-27.5 623.49-27.5L623.49-27.5Q626.24-27.5 628.44-26.73 630.64-25.95 632.14-24.35L632.14-24.35Q633.89-22.5 634.79-19.73 635.69-16.95 635.69-13.75ZM616.54-13.7L616.54-13.7Q616.54-10.65 617.01-8.43 617.49-6.2 618.34-4.75L618.34-4.75Q619.19-3.5 620.36-2.8 621.54-2.1 623.44-2.1L623.44-2.1Q626.89-2.1 628.59-4.45L628.59-4.45Q629.49-5.75 629.91-8.05 630.34-10.35 630.34-13.35L630.34-13.35Q630.34-16.35 629.86-18.6 629.39-20.85 628.54-22.25L628.54-22.25Q627.74-23.55 626.51-24.23 625.29-24.9 623.39-24.9L623.39-24.9Q619.89-24.9 618.34-22.6L618.34-22.6Q616.54-19.8 616.54-13.7ZM649.19-24.95L645.74-24 650.89-6 651.49-3.05 651.74-3.05 652.34-6 658.19-27.5 661.79-27.5 667.84-6 668.44-3.05 668.64-3.05 669.24-6 674.24-24 670.99-24.95 670.99-27 680.49-27 680.49-24.95 677.79-24 670.34 0.5 665.19 0.5 659.24-19 653.44 0.5 648.29 0.5 640.64-24 637.99-24.95 637.99-27 649.19-27 649.19-24.95Z" opacity="1" transform="matrix(1,0,0,1,0,0)" fill="#0eebca" class="slogan-text-1" data-fill-palette-color="secondary" id="text-1"></path></svg></g></svg></g></svg></g></svg></g><g><svg viewBox="0 0 114.21833764064827 91.50572062623264" height="91.50572062623264" width="114.21833764064827"><g><svg xmlns="http://www.w3.org/2000/svg" xmlns:xlink="http://www.w3.org/1999/xlink" version="1.1" x="0" y="0" viewBox="2.1529999999999996 12.18 95 76.10900000000001" enable-background="new 0 0 100 100" xml:space="preserve" height="91.50572062623264" width="114.21833764064827" class="icon-icon-0" data-fill-palette-color="accent" id="icon-0"><g fill="#7fc37e" data-fill-palette-color="accent"><circle fill="none" cx="49.651" cy="72.829" r="1.8"></circle><path fill="none" d="M6.159 65.021h86.985V15.996H6.159V65.021zM56.586 46.886l11.51-4.933v-0.062l-11.51-4.932V33.67l14.891 6.825v2.854l-14.891 6.825V46.886zM51.652 28.924h3.133l-6.639 22.49h-3.132-0.001L51.652 28.924zM27.825 43.256v-2.668l14.89-6.918v3.289l-11.26 4.932v0.062l11.26 4.933v3.288L27.825 43.256 27.825 43.256z"></path><path d="M94.318 12.18h-43.88-1.495H5.063c-1.563 0-2.91 1.188-2.91 2.752v54.092 0.188 5.013 0.313c0 1.563 1.347 2.877 2.91 2.877h35.146c-0.041 0.896-0.321 4.753-2.155 6.623-1.445 1.474-3.453 2.854-2.669 3.563 0.19 0.436 1.091 0.688 3.14 0.688 4.521 0 9.416 0 11.208 0 0.453 0 0.707 0 0.707 0 1.791 0 6.688 0 11.207 0 2.334 0 3.15-0.382 3.158-0.953h-0.08v-0.188h-0.082c-0.104-0.771-1.662-1.907-2.84-3.105-1.834-1.87-2.113-5.727-2.154-6.623h34.674c1.564 0 2.83-1.313 2.83-2.877v-0.314-5.012-0.189V14.934C97.15 13.368 95.883 12.18 94.318 12.18zM49.651 74.676c-1.021 0-1.847-0.824-1.847-1.846s0.826-1.848 1.847-1.848c1.02 0 1.847 0.826 1.847 1.848C51.499 73.852 50.671 74.676 49.651 74.676zM93.145 65.021H6.159V15.996h86.985V65.021z" fill="#7fc37e" data-fill-palette-color="accent"></path><polygon points="42.715,46.886 31.455,41.953 31.455,41.891 42.715,36.959 42.715,33.67 27.825,40.588 27.825,43.256    27.825,43.257 42.715,50.174  " fill="#7fc37e" data-fill-palette-color="accent"></polygon><polygon points="48.146,51.414 54.785,28.924 51.652,28.924 45.013,51.414 45.014,51.414  " fill="#7fc37e" data-fill-palette-color="accent"></polygon><polygon points="71.477,40.495 56.586,33.67 56.586,36.959 68.096,41.891 68.096,41.953 56.586,46.886 56.586,50.174    71.477,43.349  " fill="#7fc37e" data-fill-palette-color="accent"></polygon></g></svg></g></svg></g></svg></g><defs></defs></svg><rect width="395.52" height="69.7030770594007" fill="none" stroke="none" visibility="hidden"></rect></g></svg></g></svg>